<svg version="1.1"
	 x="0px" y="0px" width="108.1px" height="108.1px" viewBox="0 0 108.1 108.1" enable-background="new 0 0 108.1 108.1"
	 xml:space="preserve">
<path fill="#F5B501" d="M106.1,60.9c-0.7-15.6-1.7-40.6-2.5-56.4C87.8,3.7,62.8,2.7,47.2,2c-15.6-0.7-31.2-1.5-47-2
	c0,0.1,0,0.2,0,0.2c-0.1,0-0.1,0-0.2,0c0.5,15.8,1,31.4,2,47c0.7,15.6,1.7,40.6,2.5,56.2v0.2c11.9,0.6,29.1,1.3,43.5,1.9
	c0-4.8,0-26.6,0-45.1h-9.1V44.2H48V33.7c0-7.5,3.6-19.3,19.3-19.3l14.2,0.1v15.8c0,0-8.6,0-10.3,0c-1.7,0-4.1,0.8-4.1,4.4v9.6h14.6
	L80,60.5H67.1c0,20,0,44.4,0,46c13.5,0.6,27.1,1.3,40.8,1.7c0-0.1,0-0.2,0-0.3c0.1,0,0.2,0,0.2,0C107.6,92.1,107.1,76.2,106.1,60.9z
	"/>
</svg>
