<svg xmlns="http://www.w3.org/2000/svg" width="200.7" height="172.2" viewBox="0 0 200.7 172.2"><path fill="#FFF" d="M200.7 55.4c-19.9 17.2-20.2 16.6-40.3 33.1-20.1 16.4-39.8 33.1-59 50-12.8-13.8-32.8-36.4-45.4-50.1-12.7-13.6-25.2-27.6-37.6-41.8 8.1-7.8 16.2-15.6 24.5-23.3C51.1 15.6 59.2 7.8 67.3 0 73.9 11.1 80.5 21.9 87 32.5c6.5 10.6 13.3 20.8 20.1 30.7C123.6 48.7 159 17.5 175 3.3M197.5 146.4c-6.2 5.3-6.2 5.1-12.5 10.2-6.2 5.1-12.3 10.2-18.2 15.5-4-4.3-10.1-11.3-14.1-15.5-3.9-4.2-7.8-8.5-11.6-12.9 2.5-2.4 5-4.8 7.6-7.2 2.5-2.4 5.1-4.8 7.6-7.2 2 3.4 4.1 6.8 6.1 10.1s4.1 6.4 6.2 9.5c5.1-4.5 16-14.1 21-18.5M0 111.8c6.2 5.3 6.2 5.1 12.5 10.2 6.2 5.1 12.3 10.2 18.2 15.5 4-4.3 10.1-11.3 14.1-15.5 3.9-4.2 7.8-8.5 11.6-12.9-2.5-2.4-5-4.8-7.6-7.2-2.5-2.4-5.1-4.8-7.6-7.2-2 3.4-4.1 6.8-6.1 10.1s-4.1 6.4-6.2 9.5c-5.1-4.5-16-14.1-21-18.5"/></svg>