<?xml version="1.0" encoding="utf-8"?>
<!-- Generator: Adobe Illustrator 18.0.0, SVG Export Plug-In . SVG Version: 6.00 Build 0)  -->
<!DOCTYPE svg PUBLIC "-//W3C//DTD SVG 1.1//EN" "http://www.w3.org/Graphics/SVG/1.1/DTD/svg11.dtd">
<svg version="1.1" id="Layer_1" xmlns="http://www.w3.org/2000/svg" xmlns:xlink="http://www.w3.org/1999/xlink" x="0px" y="0px"
	 viewBox="0 0 476.1 122.4" enable-background="new 0 0 476.1 122.4" xml:space="preserve">
<path fill="#3FCDDA" d="M71.7,72.3c0,1.6-0.4,3.1-1.1,4.6c-0.7,1.4-1.8,2.7-3.2,3.7c-1.4,1.1-3.2,1.9-5.3,2.6
	c-2.1,0.6-4.6,0.9-7.4,0.9c-3,0-5.7-0.4-7.9-1.1s-4.1-1.5-5.7-2.4c-1.8-1-3.3-2.2-4.6-3.5l5.4-8.3c0.7,0.6,1.5,1.1,2.5,1.6
	c0.8,0.4,1.8,0.8,2.9,1.1c1.1,0.3,2.3,0.5,3.7,0.5c0.5,0,1-0.1,1.3-0.4s0.5-0.6,0.5-0.9s-0.4-0.6-1.1-0.9c-0.7-0.3-1.6-0.7-2.6-1.1
	s-2.2-0.9-3.4-1.4c-1.2-0.6-2.4-1.3-3.4-2.2c-1-0.9-1.9-2-2.6-3.2c-0.7-1.3-1.1-2.8-1.1-4.6c0-1.6,0.4-3.1,1.1-4.6
	c0.7-1.4,1.8-2.7,3.2-3.7c1.4-1.1,3.2-1.9,5.3-2.6c2.1-0.6,4.6-0.9,7.4-0.9c2.5,0,4.7,0.3,6.6,1c2,0.7,3.6,1.4,5,2.1
	c1.6,0.9,3,1.9,4.3,3.1l-5.4,8.4c-0.6-0.5-1.2-0.9-2-1.3c-0.6-0.3-1.4-0.7-2.2-0.9s-1.8-0.4-2.7-0.4c-0.5,0-1,0.1-1.3,0.4
	c-0.3,0.3-0.5,0.6-0.5,0.9c0,0.4,0.4,0.7,1.1,1c0.7,0.3,1.6,0.6,2.6,1s2.2,0.9,3.4,1.5s2.4,1.3,3.4,2.2s1.9,2,2.6,3.2
	C71.3,69,71.7,70.5,71.7,72.3"/>
<path fill="#3FCDDA" d="M74.6,60.1V45.6h5.1V33.2h17.4v12.3h6.5V60h-6.5v5.8c0,1.4,0.3,2.4,1,3.1s1.5,1,2.7,1h1.1
	c0.3,0,0.6,0,0.9-0.1c0.3,0,0.6-0.1,0.9-0.2v13.7c-0.6,0.1-1.2,0.2-1.9,0.3c-0.6,0.1-1.3,0.2-2.1,0.2c-0.8,0.1-1.7,0.1-2.6,0.1
	c-5.5,0-9.7-1.5-12.8-4.6c-3.1-3-4.6-7.6-4.6-13.6v-5.8h-5.1V60.1z"/>
<path fill="#3FCDDA" d="M155.6,78.6c-0.7,1-1.5,1.9-2.4,2.8c-0.8,0.7-1.9,1.3-3.1,1.9c-1.3,0.6-2.8,0.8-4.6,0.8
	c-2,0-3.9-0.4-5.7-1.3s-3.5-2.1-4.9-3.8c-1.4-1.6-2.5-3.7-3.4-6c-0.8-2.4-1.3-5.1-1.3-8.1s0.4-5.8,1.3-8.1c0.8-2.4,2-4.4,3.4-6
	s3-2.9,4.9-3.8c1.8-0.9,3.8-1.3,5.7-1.3c1.8,0,3.4,0.2,4.6,0.7c1.3,0.5,2.3,1,3.1,1.6c0.9,0.7,1.7,1.4,2.4,2.3l1.5-4.5h16v37.3
	c0,3-0.6,5.9-1.7,8.5c-1.2,2.7-2.7,5-4.7,7s-4.3,3.6-7,4.7s-5.6,1.7-8.7,1.7c-2.7,0-5-0.3-7-0.9s-3.7-1.3-5.1-2.1
	c-1.6-0.9-3-1.9-4.2-3.1l7.3-11.6c0.6,0.5,1.2,1,1.9,1.5c0.6,0.4,1.3,0.7,2.1,1s1.7,0.4,2.6,0.4c2.2,0,3.9-0.6,5.3-1.9
	c1.3-1.3,2-2.9,2-5v-4.7H155.6z M148.3,64.3c0,1.5,0.4,2.6,1.2,3.5s1.7,1.3,2.8,1.3s2.1-0.4,2.8-1.3c0.8-0.9,1.2-2,1.2-3.5
	s-0.4-2.6-1.2-3.5s-1.7-1.3-2.8-1.3s-2.1,0.4-2.8,1.3C148.7,61.6,148.3,62.8,148.3,64.3"/>
<path fill="#3FCDDA" d="M196.1,45.5c2.8,0,5.4,0.5,7.9,1.5s4.6,2.3,6.5,4c1.8,1.7,3.3,3.7,4.4,5.9c1.1,2.3,1.6,4.7,1.6,7.2v3.3
	h-23.2c0.2,0.8,0.6,1.5,1.1,2c0.4,0.5,1.1,1,2,1.4s2,0.6,3.5,0.6c0.9,0,1.8-0.1,2.6-0.4s1.5-0.6,2.1-1c0.7-0.4,1.3-0.9,1.9-1.5
	l6.2,9.8c-1.1,1.1-2.4,2-3.9,2.9c-1.3,0.7-2.9,1.4-4.8,2s-4.1,0.9-6.5,0.9c-3.1,0-6-0.5-8.6-1.5s-4.9-2.4-6.8-4.1
	c-1.9-1.7-3.4-3.8-4.5-6.1c-1.1-2.3-1.6-4.9-1.6-7.5c0-2.7,0.5-5.2,1.6-7.5s2.5-4.4,4.4-6.1c1.8-1.7,4-3.1,6.5-4.1
	C190.6,46,193.2,45.5,196.1,45.5 M199.3,60.5c0-0.8-0.3-1.4-0.9-1.7c-0.6-0.4-1.4-0.6-2.3-0.6c-0.9,0-1.7,0.2-2.3,0.6
	c-0.6,0.4-0.9,1-0.9,1.7H199.3z"/>
<path fill="#3FCDDA" d="M219.2,64.8c0-2.7,0.5-5.2,1.6-7.5s2.6-4.4,4.5-6.1c1.9-1.7,4.3-3.1,7-4.1s5.7-1.5,9-1.5
	c3.2,0,6.2,0.5,9,1.5c2.7,1,5.1,2.4,7,4.1c1.9,1.7,3.4,3.8,4.5,6.1s1.6,4.9,1.6,7.5c0,2.7-0.5,5.2-1.6,7.5s-2.6,4.4-4.5,6.1
	s-4.3,3.1-7,4.1s-5.7,1.5-9,1.5s-6.3-0.5-9-1.5s-5-2.4-7-4.1c-1.9-1.7-3.4-3.8-4.5-6.1C219.8,70,219.2,67.5,219.2,64.8 M246.1,64.8
	c0-1.3-0.5-2.4-1.4-3.2s-2-1.2-3.3-1.2s-2.4,0.4-3.3,1.2c-0.9,0.8-1.4,1.9-1.4,3.2c0,1.3,0.5,2.4,1.4,3.2c0.9,0.8,2,1.2,3.3,1.2
	s2.4-0.4,3.3-1.2C245.6,67.2,246.1,66.2,246.1,64.8"/>
<path fill="#3FCDDA" d="M287.4,47.2c0.7-0.7,1.6-1.1,2.7-1.4c1.1-0.2,2.4-0.4,3.8-0.4c0.7,0,1.4,0,2,0s1.2,0,1.6,0c0.5,0,1,0,1.5,0
	l-2.9,16c-0.6-0.3-1.2-0.5-1.7-0.7s-1.1-0.4-1.7-0.5S291.6,60,291,60c-1.8,0-3.4,0.7-4.6,2.1c-1.3,1.4-1.9,3.4-1.9,5.9v16H267V45.6
	h16.7l1.5,4.4C285.8,49,286.5,48.1,287.4,47.2"/>
<path fill="#3FCDDA" d="M325.1,78.6c-0.7,1-1.5,1.9-2.4,2.8c-0.8,0.7-1.9,1.3-3.1,1.9c-1.3,0.6-2.8,0.8-4.6,0.8
	c-2,0-3.9-0.4-5.7-1.3c-1.8-0.9-3.5-2.1-4.9-3.8c-1.4-1.6-2.5-3.7-3.4-6c-0.8-2.4-1.3-5.1-1.3-8.1s0.4-5.8,1.3-8.1
	c0.8-2.4,2-4.4,3.4-6s3-2.9,4.9-3.8c1.8-0.9,3.8-1.3,5.7-1.3c1.8,0,3.4,0.2,4.6,0.7c1.3,0.5,2.3,1,3.1,1.6c0.9,0.7,1.7,1.4,2.4,2.3
	l1.5-4.5h16v37.3c0,3-0.6,5.9-1.7,8.5c-1.2,2.7-2.7,5-4.7,7s-4.3,3.6-7,4.7s-5.6,1.7-8.7,1.7c-2.7,0-5-0.3-7-0.9s-3.7-1.3-5.1-2.1
	c-1.6-0.9-3-1.9-4.2-3.1l7.3-11.6c0.6,0.5,1.2,1,1.9,1.5c0.6,0.4,1.3,0.7,2.1,1c0.8,0.3,1.7,0.4,2.6,0.4c2.2,0,3.9-0.6,5.3-1.9
	c1.3-1.3,2-2.9,2-5v-4.7H325.1z M317.9,64.3c0,1.5,0.4,2.6,1.2,3.5c0.8,0.9,1.7,1.3,2.8,1.3c1.1,0,2.1-0.4,2.8-1.3
	c0.8-0.9,1.2-2,1.2-3.5s-0.4-2.6-1.2-3.5c-0.8-0.9-1.7-1.3-2.8-1.3c-1.1,0-2.1,0.4-2.8,1.3C318.3,61.6,317.9,62.8,317.9,64.3"/>
<path fill="#3FCDDA" d="M365.6,45.5c2.8,0,5.4,0.5,7.9,1.5s4.6,2.3,6.5,4c1.8,1.7,3.3,3.7,4.4,5.9c1.1,2.3,1.6,4.7,1.6,7.2v3.3
	h-23.2c0.2,0.8,0.6,1.5,1.1,2c0.4,0.5,1.1,1,2,1.4s2,0.6,3.5,0.6c0.9,0,1.8-0.1,2.6-0.4c0.8-0.3,1.5-0.6,2.1-1
	c0.7-0.4,1.3-0.9,1.9-1.5l6.2,9.8c-1.1,1.1-2.4,2-3.9,2.9c-1.3,0.7-2.9,1.4-4.8,2s-4.1,0.9-6.5,0.9c-3.1,0-6-0.5-8.6-1.5
	s-4.9-2.4-6.8-4.1s-3.4-3.8-4.5-6.1c-1.1-2.3-1.6-4.9-1.6-7.5c0-2.7,0.5-5.2,1.6-7.5s2.5-4.4,4.4-6.1c1.8-1.7,4-3.1,6.5-4.1
	C360.2,46,362.8,45.5,365.6,45.5 M368.9,60.5c0-0.8-0.3-1.4-0.9-1.7c-0.6-0.4-1.4-0.6-2.3-0.6s-1.7,0.2-2.3,0.6
	c-0.6,0.4-0.9,1-0.9,1.7H368.9z"/>
<polygon fill="#3FCDDA" points="409.3,33.2 400.6,55 389,55 394,33.2 "/>
<path fill="#3FCDDA" d="M439,72.3c0,1.6-0.4,3.1-1.1,4.6c-0.7,1.4-1.8,2.7-3.2,3.7c-1.4,1.1-3.2,1.9-5.3,2.6
	c-2.1,0.6-4.6,0.9-7.4,0.9c-3,0-5.7-0.4-7.9-1.1c-2.2-0.7-4.1-1.5-5.7-2.4c-1.8-1-3.3-2.2-4.6-3.5l5.4-8.3c0.7,0.6,1.5,1.1,2.5,1.6
	c0.8,0.4,1.8,0.8,2.9,1.1c1.1,0.3,2.3,0.5,3.7,0.5c0.5,0,1-0.1,1.3-0.4s0.5-0.6,0.5-0.9s-0.4-0.6-1.1-0.9s-1.6-0.7-2.6-1.1
	s-2.2-0.9-3.4-1.4c-1.2-0.6-2.4-1.3-3.4-2.2c-1-0.9-1.9-2-2.6-3.2c-0.7-1.3-1.1-2.8-1.1-4.6c0-1.6,0.4-3.1,1.1-4.6
	c0.7-1.4,1.8-2.7,3.2-3.7c1.4-1.1,3.2-1.9,5.3-2.6c2.1-0.6,4.6-0.9,7.4-0.9c2.5,0,4.7,0.3,6.6,1c2,0.7,3.6,1.4,5,2.1
	c1.6,0.9,3,1.9,4.3,3.1l-5.4,8.4c-0.6-0.5-1.2-0.9-2-1.3c-0.6-0.3-1.4-0.7-2.2-0.9c-0.8-0.3-1.8-0.4-2.7-0.4c-0.5,0-1,0.1-1.3,0.4
	c-0.3,0.3-0.5,0.6-0.5,0.9c0,0.4,0.3,0.7,1.1,1c0.7,0.3,1.6,0.6,2.6,1s2.2,0.9,3.4,1.5c1.2,0.6,2.4,1.3,3.4,2.2s1.9,2,2.6,3.2
	C438.7,69,439,70.5,439,72.3"/>
<path fill="#3FCDDA" d="M475.3,24.6c-0.3-6.3-0.7-16.4-1-22.8l0,0l0,0c-6.4-0.3-16.5-0.7-22.8-1s-12.6-0.6-19-0.8
	c-0.2,3.8-0.3,7.6-0.4,11.4s-0.3,7.6-0.4,11.4c4.3-0.7,8.5-1.3,12.6-1.9s8.3-1,12.3-1.4c-0.3,4-0.8,8.2-1.4,12.3s-1.2,8.4-1.9,12.6
	c3.8-0.2,7.6-0.3,11.4-0.4c3.8-0.1,7.6-0.3,11.4-0.4C475.9,37.2,475.7,30.8,475.3,24.6"/>
<path fill="#3FCDDA" d="M31.8,101.6c-4.1,0.6-8.3,1-12.3,1.4l0,0l0,0l0,0c0.3-4,0.8-8.2,1.4-12.3c0.6-4.1,1.2-8.4,1.9-12.6
	c-3.8,0.2-7.6,0.3-11.4,0.4S3.8,78.7,0,78.9c0.2,6.4,0.4,12.7,0.8,19c0.3,6.3,0.7,16.4,1,22.7v0.1l0,0l0,0c6.4,0.3,16.5,0.7,22.8,1
	s12.6,0.6,19,0.8c0.2-3.8,0.3-7.6,0.4-11.4c0.1-3.8,0.3-7.6,0.4-11.4C40.1,100.4,35.9,101,31.8,101.6"/>
</svg>
