
<svg version="1.1" class="footer-logo" viewBox="0 0 107 160">
	<path fill="#FFFFFF" d="M104.9,53.9c-0.7-13.8-1.5-35.9-2.2-49.9l0,0l0,0c-14-0.7-36.1-1.5-49.9-2.2S25.1,0.4,11.1,0
	c-0.4,8.3-0.7,16.6-0.9,25c-0.2,8.3-0.7,16.6-0.9,25c9.4-1.5,18.6-2.8,27.6-4.2c9-1.3,18.2-2.2,26.9-3.1c-0.7,8.8-1.8,18-3.1,26.9
	s-2.6,18.4-4.2,27.6c8.3-0.4,16.6-0.7,25-0.9c8.3-0.2,16.6-0.7,25-0.9C106.2,81.5,105.8,67.5,104.9,53.9"/>
	<path fill="#FFFFFF" d="M69.7,109.9c-9,1.3-18.2,2.2-26.9,3.1l0,0l0,0l0,0c0.7-8.8,1.8-18,3.1-26.9c1.3-9,2.6-18.4,4.2-27.6
	c-8.3,0.4-16.6,0.7-25,0.9c-8.3,0.2-16.6,0.4-25,0.9c0.4,14,0.9,27.8,1.8,41.6c0.7,13.8,1.5,35.9,2.2,49.7v0.2l0,0l0,0
	c14,0.7,36.1,1.5,49.9,2.2s27.6,1.3,41.6,1.8c0.4-8.3,0.7-16.6,0.9-25s0.7-16.6,0.9-25C87.9,107.3,78.6,108.6,69.7,109.9"/>
</svg>
