<svg xmlns="http://www.w3.org/2000/svg" width="108.1" height="108.1" viewBox="0 0 108.1 108.1"><path fill="#F5B501" d="M106.1 60.9c-.7-15.6-1.7-40.6-2.5-56.4C87.8 3.7 62.8 2.7 47.2 2 31.6 1.3 16 .5.2 0v.2H0c.5 15.8 1 31.4 2 47 .7 15.6 1.7 40.6 2.5 56.2v.2c15.8.7 40.8 1.7 56.4 2.5 15.6.7 31.2 1.5 47 2v-.3c.1.1.1.1.2.1-.5-15.8-1-31.7-2-47zM88.5 36.7V39c0 23.4-17.8 50.5-50.5 50.5-10 0-19.3-3-27.2-8 1.4.1 2.8.2 4.2.2 8.4 0 16-2.8 22.1-7.6-7.8-.1-14.3-5.2-16.6-12.3 1 .2 2.2.3 3.3.3 1.6 0 3.2-.2 4.7-.6-8.2-1.6-14.3-8.8-14.3-17.4v-.2c2.3 1.3 5.1 2.1 8 2.2-4.8-3.2-7.9-8.6-7.9-14.8 0-3.2.9-6.3 2.4-8.9C25.4 33.2 38.5 40.3 53.3 41c-.3-1.3-.5-2.6-.5-4 0-9.8 8-17.8 17.8-17.8 5.1 0 9.8 2.1 13 5.6 4.1-.8 7.9-2.3 11.3-4.3-1.3 4.1-4.1 7.6-7.8 9.8 3.6-.4 7-1.4 10.2-2.8-2.4 3.6-5.4 6.7-8.8 9.2z"/></svg>