<svg version="1.1"
	 xmlns="http://www.w3.org/2000/svg" xmlns:xlink="http://www.w3.org/1999/xlink" xmlns:a="http://ns.adobe.com/AdobeSVGViewerExtensions/3.0/"
	 x="0px" y="0px" width="830.5px" height="1134.8px" viewBox="0 0 830.5 1134.8" enable-background="new 0 0 830.5 1134.8"
	 xml:space="preserve">
<path fill="#3FCDDA" d="M548.3,877.3c77.5-86.6,203.5-223.4,282.2-311.3l0,0l0,0c-79.5-87-206.9-222.6-285.2-308.5S388,85.2,306.7,0
	c-51.5,47.2-102.4,95.1-153.3,144.1C103,192.5,50.9,239.2,0,288.2c65.1,46.7,127.7,93.3,189.8,138.2
	c61.5,45.5,121.8,94.6,179.1,140.7c-56.3,48.5-117.3,96.9-177.7,142.4C130.8,755,66.8,804.1,2.8,849.6
	c52,46.7,103.4,94.1,154.7,142.6c50.8,47.9,103.4,94.1,154.7,142.6C392.7,1049.9,473.2,963.9,548.3,877.3"/>
</svg>