<svg version="1.1"
	 xmlns="http://www.w3.org/2000/svg" xmlns:xlink="http://www.w3.org/1999/xlink" xmlns:a="http://ns.adobe.com/AdobeSVGViewerExtensions/3.0/"
	 x="0px" y="0px" width="532.2px" height="510.2px" viewBox="0 0 532.2 510.2" enable-background="new 0 0 532.2 510.2"
	 xml:space="preserve">
<g>
	<path fill="#FFFFFF" d="M247.6,146.7c4.7,0.4,9.6,0.7,14.5,0.9c4.9,0.2,9.9,0.3,15,0.4c-1,4.3-1.9,8.7-2.8,13.1
		c-0.9,4.4-1.9,8.8-2.8,13.1c-7.3-1.5-14.6-3-21.9-4.7c-7.2-1.7-14.5-3.3-21.8-5c1.7-10,3.3-20.1,4.7-30.3
		c1.4-10.2,2.9-20.5,4.6-30.8c0.3-1.6,0.5-3.3,0.8-5c0.2-1.7,0.6-3.1,1-4.5c3,0.6,6,1.1,9,1.5c3,0.4,6.1,0.8,9.2,1.2
		c-2,8.2-3.8,16.4-5.2,24.8C250.5,129.7,249.1,138.2,247.6,146.7"/>
	<path fill="#FFFFFF" d="M333.7,111.7c-0.2,3.2-0.6,6.4-1.4,9.8c-0.7,3.4-1.3,6.8-1.9,10.2c-4.6-0.6-9-1.2-13.3-1.7
		c-4.3-0.5-8.7-1-13.5-1.6c0,1.1,0.1,2.4,0.1,3.9c0,1.5,0,2.9,0,4.3c2.1,0.2,4.1,0.5,6.2,0.7c2.1,0.3,4.2,0.6,6.3,1.1
		c-0.4,2-0.8,4.1-1.1,6.1c-0.3,2-0.6,4.1-1,6.1c-1.1-0.3-2.4-0.5-3.9-0.8c-1.6-0.2-3.1-0.5-4.5-0.7c-1.5-0.2-2.7-0.4-3.7-0.5
		c-1-0.1-1.6-0.1-1.6,0c-0.2,2.2-0.5,4.3-0.7,6.4c-0.2,2.1-0.4,4.2-0.5,6.3c4.2,0.6,8.4,1.2,12.7,1.8c4.3,0.7,8.5,1.2,12.6,1.7
		c-0.7,3.4-1.3,6.7-1.7,9.9c-0.4,3.2-1,6.5-1.7,9.9c-7.6-1.5-15-2.7-22.2-3.8c-7.3-1.1-14.6-2.2-22-3.3c1.6-11.5,3.2-23.1,4.9-34.6
		c1.7-11.6,3.3-23.2,4.9-34.8c7.8,0.6,15.6,1.3,23.4,2C318.2,110.9,325.9,111.4,333.7,111.7"/>
	<path fill="#FFFFFF" d="M363.6,109.4c4.1,12.6,8.2,25,12.5,37.1c4.3,12.1,8.7,24.3,13.3,36.3c-4.4,0-8.9,0.1-13.5,0.1
		c-4.5,0.1-8.7,0-12.6-0.2c-0.2-1.4-0.4-2.9-0.4-4.5c-0.1-1.6-0.1-3.3-0.2-5c-0.1-1.7-0.1-3.3-0.2-4.9c-0.1-1.6-0.3-3-0.5-4.3
		c-1.6-0.3-3.2-0.5-5-0.5c-1.7,0-3.4,0-5.1-0.1c-0.8,3-1.4,6.2-1.8,9.5c-0.4,3.4-0.9,6.7-1.4,10c-3.3,0.2-6.9,0.4-10.8,0.5
		c-3.8,0.1-7.5,0.1-11.1-0.2c3.2-12.2,6.3-24.6,9.1-36.9c2.8-12.4,6.2-24.4,10.1-36.2c3-0.2,5.8-0.3,8.6-0.4
		C357.5,109.9,360.5,109.7,363.6,109.4"/>
	<path fill="#FFFFFF" d="M428,151.2c3.5,1.2,7,2.2,10.6,3c3.6,0.8,7.2,1.6,10.9,2.5c-1.9,4.5-4,9.2-6.1,14
		c-2.2,4.8-4.3,9.5-6.3,14.1c-2.7-2-5.5-3.9-8.4-5.8c-2.9-1.9-5.7-3.8-8.6-5.8c-0.9-0.6-1.8-1.2-2.7-1.8c-0.9-0.6-1.7-1.3-2.3-2.3
		c-0.5,2.5-0.7,5.1-0.7,7.8c0.1,2.7,0.1,5.3,0.1,7.8c-4.9-1.6-9.8-3.2-14.6-4.9c-4.8-1.7-9.6-3.5-14.3-5.4c2.5-10.1,5-20.7,7.6-32
		c2.6-11.3,5.1-22.4,7.6-33.3c3.1,0.2,6.4,0.6,10.1,1c3.6,0.5,7.2,1.1,10.7,2c3.5,0.8,6.8,1.9,9.9,3.1c3.1,1.2,5.6,2.7,7.7,4.4
		c0.7,0.5,1.4,1.2,2,2c0.6,0.8,1.1,1.4,1.3,2c0.8,1.6,1.4,3.6,1.9,6.1c0.5,2.5,0.2,5-0.8,7.4c-0.2,0.6-0.6,1.2-1.3,1.9
		c-0.6,0.7-1.3,1.4-2.1,2.1c-0.7,0.7-1.5,1.4-2.2,2c-0.7,0.6-1.3,1.1-1.8,1.5c-1.4,1.3-2.8,2.4-4.3,3.3
		C430.3,148.8,429.1,149.9,428,151.2"/>
	<path fill="#FFFFFF" d="M525.9,145.2c-2.6,5.1-5.1,10.2-7.7,15.4c-2.5,5.2-5,10.5-7.3,15.9c-2.3,5.4-4.7,10.8-7,16.1
		c-2.4,5.3-4.9,10.6-7.7,15.7c-2.1-1.7-4.6-3.8-7.3-6.4c-2.8-2.6-5.4-5.1-7.9-7.5c-2.5-2.4-4.7-4.5-6.5-6.2c-1.8-1.7-2.8-2.6-3-2.6
		c-0.3,2.3-0.6,4.7-0.8,7.3c-0.2,2.6-0.5,5-0.6,7.2c-3.7-1-7.4-2-11.1-3c-3.7-1-7.3-2-10.8-3.1c1.4-11.4,2.8-22.7,4-34
		c1.2-11.3,2.1-22.2,2.7-32.7c0.2-0.2,0.6,0.1,1,0.9c0.4,0.8,0.8,1.4,1.1,1.8c5.5,7.6,11.2,15.3,17,23c5.8,7.7,11.4,15.5,16.8,23.3
		c0.7-2.8,1.4-6,2.3-9.7c0.8-3.7,1.7-7.6,2.6-11.7c0.9-4.1,1.8-8.3,2.6-12.5c0.8-4.3,1.6-8.3,2.2-12.2c4.7,1,9.6,2.1,14.7,3.3
		c5.1,1.2,10,2.4,14.5,3.5c-0.2,0.8-0.5,1.4-0.8,1.9c-0.3,0.5-0.6,1.1-0.7,1.9L525.9,145.2z"/>
	<path fill="#FFFFFF" d="M1.1,94.2c5.3-0.4,10.4-0.8,15.4-1.1c5-0.3,10.1-0.6,15.1-1c5-0.4,10.1-0.8,15.3-1.4
		c5.2-0.5,10.5-1.2,16-2.2c0,4.6,0,9.2-0.1,13.7c-0.1,4.5-0.5,8.7-1.4,12.7c-3,0.1-6,0.3-9,0.4c-3,0.1-5.9,0.3-8.8,0.6
		c-0.1,2.9-0.3,6.2-0.3,9.7c-0.1,3.5-0.1,7.2-0.1,11c0,3.8,0.1,7.5,0.2,11.2c0.1,3.7,0.2,7.1,0.5,10.3c-4.3,0.4-8.5,0.8-12.6,1.2
		c-4.1,0.4-8.1,0.6-11.9,0.5c-0.2-3.5-0.2-7.2-0.2-11.1c0.1-3.9,0.1-7.9,0.3-11.8c0.1-4,0.3-7.9,0.4-11.8c0.1-3.9,0.1-7.5-0.1-11
		c-3.1,0-6.1,0.1-9,0.3s-5.9,0.5-9.1,0.8c-0.2-3.6-0.4-7.1-0.7-10.7C0.7,100.9,0.7,97.5,1.1,94.2"/>
	<path fill="#FFFFFF" d="M90.7,86.7c4,12,8.2,23.7,12.5,35.3c4.3,11.5,8.6,23.1,13.1,34.5c-4.2,0.1-8.5,0.2-12.9,0.3
		c-4.3,0.1-8.3,0.1-12,0c-0.2-1.3-0.4-2.7-0.5-4.3c-0.1-1.6-0.1-3.1-0.2-4.7c-0.1-1.6-0.2-3.2-0.3-4.7c-0.1-1.5-0.3-2.9-0.5-4.1
		c-1.5-0.3-3.1-0.4-4.8-0.4c-1.7,0-3.3,0-4.9,0c-0.7,2.9-1.3,5.9-1.6,9.1c-0.4,3.2-0.8,6.4-1.2,9.5c-3.2,0.2-6.6,0.5-10.3,0.6
		s-7.2,0.1-10.6-0.1c2.9-11.7,5.7-23.5,8.2-35.4c2.6-11.9,5.6-23.4,9.1-34.7c2.8-0.2,5.6-0.4,8.2-0.5C84.9,87.3,87.7,87.1,90.7,86.7
		"/>
	<path fill="#FFFFFF" d="M133.1,134.1c4.5-0.6,9.1-1.3,13.7-2.2c4.6-0.9,9.3-1.8,14.1-2.8c0,4.2,0,8.5,0.1,12.8
		c0.1,4.3,0.1,8.6,0.1,12.8c-7.2,0.1-14.3,0.2-21.4,0.1c-7.1,0-14.2-0.1-21.4-0.1c-0.5-9.7-1.1-19.4-1.9-29.3
		c-0.8-9.8-1.5-19.7-2.1-29.7c-0.1-1.6-0.2-3.2-0.3-4.8c-0.1-1.6-0.1-3.1,0-4.4c2.9,0,5.8-0.2,8.7-0.5c2.9-0.3,5.9-0.5,8.9-0.8
		c-0.2,8-0.1,16.1,0.3,24.2C132.3,117.6,132.7,125.8,133.1,134.1"/>
	<path fill="#FFFFFF" d="M191.6,82.1c1.5,0.7,3.3,1.3,5.3,1.9c2,0.6,4,1.2,6,1.8c2.1,0.6,4.1,1.3,6,1.9c2,0.7,3.7,1.3,5.2,1.9
		c-0.5,1.3-1.2,2.6-2.2,3.7c-0.9,1.1-1.8,2.3-2.6,3.4c-2.5,3.6-4.7,7.6-6.7,12.1c-2,4.5-4.1,8.8-6.4,12.8c4.4-0.8,8.5-1.7,12.3-2.8
		c3.8-1.1,7.7-2.3,11.6-3.5c-0.4,4.8-0.8,9.7-1.2,14.5c-0.4,4.8-0.7,9.7-0.9,14.8c-3-0.4-6.5-1-10.3-1.7c-3.9-0.7-7.4-1.4-10.7-2.2
		c-3.3-0.7-6-1.3-8.1-1.8c-2.1-0.5-3-0.6-2.5-0.4c0,0.9,0.1,2.1,0.3,3.4c0.2,1.3,0.3,2.7,0.5,4c0.2,1.4,0.3,2.7,0.4,3.9
		c0.1,1.3,0.1,2.3,0.1,3c-3.6,0.2-7.1,0.4-10.6,0.6c-3.5,0.3-7.2,0.4-11.3,0.5c-0.4-5.2-0.9-10.7-1.3-16.6c-0.4-5.9-0.8-11.9-1.3-18
		c-0.4-6.1-0.8-12.1-1.2-18.1c-0.4-5.9-0.8-11.5-1.2-16.6c2.4-0.1,5.1-0.3,8-0.5c2.9-0.2,5.4-0.5,7.5-0.8c0.8,4.2,1.4,8.4,2,12.5
		c0.6,4.1,1.2,8.5,1.9,13.1c2-4.5,3.9-9,5.7-13.5C187.7,91,189.6,86.5,191.6,82.1"/>
	<path fill="#FFFFFF" d="M306.7,15.3c2.8,1.2,5.4,2.8,7.7,4.7c2.4,2,4.3,4.2,5.8,6.6c1.5,2.4,2.6,5.1,3,8c0.5,2.9,0.3,5.8-0.7,8.7
		c-1.2,3.1-3.3,6.2-6.4,9c-3.1,2.9-6.3,5-9.6,6.3c-0.9,0.4-2.3,0.8-4.1,1.3c-1.8,0.4-3.6,0.9-5.5,1.3c-1.8,0.4-3.4,0.9-4.8,1.3
		c-1.3,0.4-2,0.7-2,1c-0.3,5.8-0.3,11.8,0,17.8c0.3,6.1,0.7,12.1,0.9,18.2c-1.5,0.1-3.3,0.1-5.3,0.1c-2,0-4-0.1-6-0.2
		c-2-0.1-4-0.2-5.9-0.3c-1.9-0.1-3.6-0.2-5.2-0.2c-0.9-13.9-1.5-27.5-1.8-41c-0.3-13.5-0.8-27-1.5-40.7c0-0.4,0.1-0.7,0.5-0.9
		c2.4-2,5.4-3.4,8.9-4.2c3.5-0.8,7.2-1.1,11.1-1.1c3.9,0.1,7.6,0.5,11.3,1.3C301,13.3,304.1,14.2,306.7,15.3"/>
	<path fill="#FFFFFF" d="M344.3,70.3c5.7-0.7,11.4-1.7,17.3-2.8c5.8-1.1,11.8-2.3,17.8-3.5c0,5.4,0.1,10.7,0.1,16.1
		c0.1,5.4,0.1,10.8,0.1,16.1c-9,0.2-18,0.2-26.9,0.2c-8.9-0.1-17.9-0.1-26.9-0.2c-0.6-12.2-1.4-24.5-2.4-36.9
		c-1.1-12.4-1.9-24.9-2.6-37.4c-0.1-2-0.2-4-0.4-6c-0.2-2-0.2-3.9,0-5.5c3.7-0.1,7.4-0.3,11-0.6c3.7-0.4,7.4-0.7,11.2-1
		c-0.2,10.1-0.1,20.3,0.4,30.5C343.4,49.5,343.8,59.9,344.3,70.3"/>
	<path fill="#FFFFFF" d="M428.5,3.7c5.1,15.1,10.4,29.9,15.7,44.5c5.4,14.6,10.9,29.1,16.6,43.6c-5.3,0.1-10.8,0.3-16.2,0.4
		c-5.5,0.1-10.5,0.1-15.2,0c-0.3-1.7-0.5-3.5-0.6-5.4c-0.1-2-0.2-3.9-0.3-6c-0.1-2-0.2-4-0.4-5.9c-0.2-1.9-0.4-3.6-0.7-5.1
		c-1.9-0.4-3.9-0.6-6-0.5c-2.1,0-4.1,0-6.2,0c-0.9,3.6-1.6,7.5-2,11.5c-0.5,4.1-1,8.1-1.5,12c-4,0.3-8.4,0.6-13,0.8
		c-4.6,0.2-9.1,0.2-13.4-0.1c3.7-14.8,7.2-29.7,10.4-44.6c3.2-15,7.1-29.6,11.5-43.8c3.6-0.3,7-0.5,10.4-0.6
		C421.1,4.4,424.7,4.1,428.5,3.7"/>
	<path fill="#FFFFFF" d="M531.7,4.6c-6.6,14-13,28.1-19.1,42.2c-6.1,14.1-12.3,28.4-18.5,42.7c-5-0.8-10-1.7-14.8-2.6
		c-4.8-0.9-9.8-1.7-14.9-2.4c1.4-3.2,3-6.9,4.8-11.3c1.8-4.4,3.5-8.5,4.9-12.5c1.5-3.9,2.7-7.3,3.7-10.1c1-2.8,1.4-4.2,1.3-4.3
		c-3-2.4-6-4.6-9.1-6.8c-3.1-2.2-6.1-4.4-9-6.6c-3-2.2-6-4.4-9.2-6.5c-3.2-2.1-5.9-4.6-8.2-7.5c3.7-2,7.4-3.9,11-6
		c3.6-2,7.2-4.1,10.8-6.1c1.3,0.9,2.6,1.9,3.9,2.9c1.2,1.1,2.4,2.2,3.5,3.3c3.6,3,7.1,6.1,10.6,9.3c3.5,3.2,7.1,6.2,10.8,9.1
		c0.5-5.4,0.8-10.7,0.9-15.9c0.2-5.2,0.5-10.4,1.1-15.6c5.5,0.8,11.3,1.6,17.3,2.4C519.7,3.2,525.8,3.9,531.7,4.6"/>
	<path fill="#FFFFFF" d="M54.5,174.5c3.5,0.9,6.9,1.7,10.4,2.5c3.5,0.8,7,1.5,10.6,2.3c-3.1,9.1-6.4,17.9-9.8,26.6
		c-3.4,8.7-6.4,17.9-8.9,27.6c-3-3.6-5.9-7.3-8.7-11c-2.8-3.8-5.6-7.5-8.4-11.3c-3.8,4.6-7.5,9.3-11.1,14c-3.6,4.8-7.2,9.5-11,14.2
		c-3-9.5-6-18.9-8.9-28.4C5.8,201.5,2.9,192,0,182.4c2.8-1.1,5.6-2.3,8.3-3.5c2.7-1.2,5.5-2.4,8.3-3.5c1.8,4.7,3.5,9.4,5.3,14
		c1.8,4.6,3.5,9.2,5.3,14c1.5-2.7,2.9-5.4,4.1-8.3c1.2-2.8,2.5-5.5,3.8-8.1c2.6,2.3,5.1,4.6,7.5,6.9c2.4,2.3,4.9,4.6,7.5,6.9
		c0.8-4.6,1.5-9,2.3-13.2C53.1,183.3,53.8,178.9,54.5,174.5"/>
	<path fill="#FFFFFF" d="M116.8,233.9c-3.3,0.7-6.7,0.8-10.2,0.4c-3.5-0.4-7.4-1.3-11.7-2.7c-3.1-1-6-2.4-8.6-4.2
		c-2.6-1.8-4.9-3.9-6.8-6.5c-2.7-3.5-4.3-7.3-4.8-11.6c-0.5-4.3-0.2-8.5,0.9-12.7c1.1-4.2,2.9-8.1,5.5-11.8c2.5-3.6,5.6-6.6,9.1-8.9
		c3.5-2.3,7.4-3.7,11.6-4.1c4.2-0.5,8.6,0.4,13.1,2.6c7.7,3.7,13.5,8.2,17.5,13.3c3.9,5.1,5.7,11.8,5.4,19.9c-0.1,2.7-0.8,5.5-2,8.4
		c-1.3,2.9-2.9,5.6-4.9,8c-2,2.5-4.2,4.6-6.7,6.4C121.8,232.2,119.3,233.4,116.8,233.9"/>
	<path fill="#FFFFFF" d="M172.1,203.9c3.1,0.4,6.3,0.7,9.5,0.7c3.2,0,6.4,0.1,9.6,0.3c-0.8,4.2-1.8,8.4-2.8,12.8
		c-1,4.4-2,8.7-2.9,13c-2.6-1.2-5.3-2.3-8.1-3.4c-2.8-1.1-5.5-2.2-8.2-3.4c-0.9-0.3-1.7-0.7-2.6-1c-0.9-0.3-1.7-0.8-2.4-1.5
		c0,2.2,0.3,4.4,0.8,6.7c0.5,2.2,1,4.4,1.4,6.5c-4.4-0.5-8.8-1.1-13.1-1.7c-4.3-0.6-8.6-1.3-13-2.2c0.4-8.9,0.8-18.3,1-28.2
		c0.3-9.9,0.5-19.7,0.8-29.4c2.6-0.3,5.5-0.6,8.6-0.8c3.1-0.2,6.2-0.3,9.3-0.1c3.1,0.1,6,0.4,8.8,1c2.8,0.5,5.2,1.3,7.2,2.4
		c0.7,0.3,1.4,0.8,2,1.3c0.7,0.6,1.1,1,1.4,1.5c0.9,1.2,1.8,2.8,2.6,4.8c0.8,2,1,4.2,0.6,6.4c-0.1,0.5-0.3,1.1-0.8,1.8
		c-0.4,0.7-0.9,1.4-1.4,2.1c-0.5,0.7-1,1.4-1.5,2c-0.5,0.6-0.9,1.2-1.3,1.6c-0.9,1.4-1.9,2.5-3,3.5
		C173.7,201.5,172.8,202.6,172.1,203.9"/>
	<path fill="#FFFFFF" d="M219,171.6c1.4,0.7,2.9,1.3,4.6,2c1.7,0.6,3.5,1.3,5.3,1.9c1.8,0.6,3.6,1.3,5.3,2c1.7,0.7,3.3,1.3,4.6,1.9
		c-0.5,1.2-1.2,2.3-2.1,3.2c-0.9,1-1.7,2-2.5,3c-2.4,3.1-4.6,6.7-6.5,10.6c-2,3.9-4.1,7.7-6.3,11.2c4-0.5,7.7-1.2,11.2-2
		c3.5-0.8,7-1.7,10.5-2.7c-0.6,4.3-1.2,8.6-1.7,13c-0.6,4.3-1,8.7-1.5,13.2c-2.7-0.5-5.8-1.2-9.2-2c-3.4-0.8-6.6-1.6-9.5-2.4
		c-2.9-0.8-5.3-1.5-7.2-2c-1.9-0.5-2.7-0.7-2.2-0.5c0,0.8,0,1.9,0.1,3.1c0.1,1.2,0.2,2.4,0.3,3.6c0.1,1.2,0.1,2.4,0.2,3.6
		c0,1.1,0,2.1-0.1,2.7c-3.2,0-6.4,0-9.5,0.1c-3.1,0.1-6.5,0.1-10.2,0c-0.2-4.7-0.3-9.7-0.4-15c-0.1-5.3-0.3-10.8-0.4-16.3
		c-0.1-5.5-0.2-10.9-0.3-16.3c-0.1-5.3-0.2-10.3-0.4-15c2.2,0,4.6,0,7.2-0.1c2.6-0.1,4.8-0.2,6.8-0.4c0.5,3.8,0.9,7.6,1.3,11.3
		c0.3,3.7,0.7,7.7,1.1,11.8c2-4,3.9-7.9,5.7-11.9C215.2,179.5,217.1,175.5,219,171.6"/>
	<path fill="#FFFFFF" d="M85.6,421.5c0.9,13.3,1.8,26.5,2.7,39.6c1,13.1,1.8,26.3,2.4,39.8c-3.4,0.1-7,0.2-10.7,0.4
		c-3.7,0.2-7.2,0.1-10.6-0.1c-0.3-4.7-0.4-9.6-0.3-14.5c0.1-4.9,0.2-9.9,0.2-15c-2.7,2.8-5.4,6-8,9.7c-2.6,3.7-5.3,7.1-8,10.3
		c-2.5-2.2-4.8-4.4-7-6.7c-2.2-2.3-4.5-4.5-7-6.7c0.2,3.8,0.6,7.7,1.3,11.8c0.6,4.1,1.2,8.1,1.6,12.1c-4.2,0.1-8.4,0.2-12.7,0.3
		c-4.3,0.1-8.6,0.1-13,0c-0.5-13.3-1.2-26.5-2.1-39.5c-0.9-13-1.7-26-2.6-39c10.7,9.6,21.5,18.9,32.4,28.1
		c7-5.1,13.8-10.3,20.3-15.7C71.2,430.9,78.2,426,85.6,421.5"/>
	<path fill="#FFFFFF" d="M146.6,421.6c0.3,3.4,0.4,7,0.2,10.8c-0.2,3.8-0.3,7.5-0.3,11.3c-5.1,0.1-9.9,0.2-14.6,0.4
		c-4.7,0.2-9.6,0.4-14.8,0.6c0.2,1.2,0.5,2.6,0.7,4.2c0.3,1.6,0.5,3.2,0.7,4.7c2.3-0.1,4.5-0.2,6.9-0.2c2.3-0.1,4.7,0,7,0.1
		c-0.1,2.3-0.2,4.5-0.2,6.8v6.8c-1.2-0.1-2.6-0.2-4.4-0.2h-5c-1.6,0-3,0-4.1,0.1c-1.1,0.1-1.7,0.1-1.7,0.2c0.1,2.4,0.2,4.7,0.3,7
		c0.1,2.3,0.3,4.6,0.5,6.9c4.6-0.1,9.3-0.2,14-0.2c4.7,0,9.4-0.1,13.9-0.3c-0.2,3.8-0.3,7.4-0.2,11c0.1,3.5,0.1,7.2-0.2,11
		c-8.4-0.3-16.6-0.5-24.6-0.4c-8,0.1-16.1,0.1-24.3,0.1c-0.2-12.7-0.4-25.4-0.5-38.2c-0.1-12.7-0.3-25.5-0.5-38.3
		c8.5-0.6,17-1.2,25.6-1.8C129.8,423.3,138.2,422.6,146.6,421.6"/>
	<path fill="#FFFFFF" d="M204,421.6c0.3,3.4,0.4,7,0.2,10.8c-0.2,3.8-0.3,7.5-0.3,11.3c-5.1,0.1-9.9,0.2-14.6,0.4
		c-4.7,0.2-9.6,0.4-14.8,0.6c0.2,1.2,0.5,2.6,0.7,4.2c0.3,1.6,0.5,3.2,0.7,4.7c2.3-0.1,4.5-0.2,6.9-0.2c2.3-0.1,4.7,0,7,0.1
		c-0.1,2.3-0.2,4.5-0.2,6.8v6.8c-1.2-0.1-2.6-0.2-4.4-0.2h-5c-1.6,0-3,0-4.1,0.1c-1.1,0.1-1.7,0.1-1.7,0.2c0.1,2.4,0.2,4.7,0.3,7
		c0.1,2.3,0.3,4.6,0.5,6.9c4.6-0.1,9.3-0.2,14-0.2c4.7,0,9.4-0.1,13.9-0.3c-0.2,3.8-0.3,7.4-0.2,11c0.1,3.5,0.1,7.2-0.2,11
		c-8.4-0.3-16.6-0.5-24.6-0.4c-8,0.1-16.1,0.1-24.3,0.1c-0.2-12.7-0.4-25.4-0.5-38.2c-0.1-12.7-0.3-25.5-0.5-38.3
		c8.5-0.6,17-1.2,25.6-1.8C187.1,423.3,195.6,422.6,204,421.6"/>
	<path fill="#FFFFFF" d="M204.9,424.7c6-0.2,11.9-0.3,17.7-0.4c5.8-0.1,11.5-0.2,17.3-0.3c5.8-0.2,11.6-0.4,17.5-0.7
		c5.9-0.3,12-0.9,18.4-1.6c-0.2,5.3-0.5,10.5-0.8,15.6c-0.3,5.1-1.1,9.9-2.3,14.4h-10.2c-3.4,0-6.8,0.1-10.1,0.2
		c-0.3,3.3-0.6,7-0.9,11.1c-0.3,4-0.5,8.2-0.6,12.5c-0.2,4.3-0.3,8.6-0.4,12.7c-0.1,4.2-0.1,8.1,0,11.8c-5,0.2-9.8,0.5-14.4,0.7
		c-4.7,0.3-9.2,0.2-13.6-0.1c0-4,0.1-8.2,0.4-12.7c0.3-4.5,0.6-9,1-13.5c0.4-4.5,0.7-9,1-13.4c0.3-4.4,0.5-8.6,0.5-12.6
		c-3.6-0.2-7-0.2-10.2-0.1c-3.3,0.2-6.8,0.3-10.4,0.4c0-4.1-0.1-8.2-0.2-12.3C204.2,432.4,204.4,428.5,204.9,424.7"/>
	<path fill="#FFFFFF" d="M285.4,243c3.9-0.3,7.5-0.4,10.9-0.5c3.4-0.1,6.9-0.2,10.7-0.5c0.1-6.1,0.3-12.3,0.4-18.5
		c0.1-6.2,0.2-12.5,0.4-18.9c4.9,0,9.7,0,14.4-0.1c4.7-0.1,9.5,0,14.4,0.1c-1.3,16-1.8,31.3-1.8,46.1c0.1,14.8,0,29.8-0.3,45.2
		c-9,0.1-17.8,0.1-26.6,0c-0.3-5-0.5-10-0.8-15.1c-0.2-5.1-0.5-10.1-0.7-15.1c-8.4-0.1-16.3,0.3-23.8,1.1c0,5,0.1,9.9,0.4,14.6
		c0.2,4.7,0.2,9.7,0,15c-4.5,0.1-9.5,0.3-15.1,0.6c-5.6,0.2-10.7,0.4-15.4,0.6c0.5-15.2,1.2-30.5,2-45.7c0.8-15.3,1.7-31.3,2.5-48.2
		c4.6,0,9.3,0.1,13.9,0.2c4.7,0.1,9.1,0.2,13.4,0.4c0.2,4,0.5,8.1,0.7,12.4c0.2,4.3,0.4,8.6,0.7,13c0.1,1.5,0.2,3.2,0.3,5.1
		c0.1,1.9,0.2,3.2,0.3,3.7c-0.3,0.6-0.4,1.3-0.4,2C285.8,241.1,285.6,242,285.4,243"/>
	<path fill="#FFFFFF" d="M397.4,200.7c0.4,4,0.4,8.2,0.2,12.5c-0.2,4.4-0.4,8.7-0.4,13.1c-5.9,0.1-11.5,0.3-16.9,0.5
		c-5.4,0.2-11.1,0.4-17.1,0.7c0.3,1.4,0.5,3,0.8,4.9c0.3,1.9,0.6,3.7,0.8,5.4c2.6-0.1,5.3-0.2,8-0.3c2.7-0.1,5.4,0,8.1,0.1
		c-0.1,2.6-0.2,5.2-0.2,7.9v7.9c-1.4-0.1-3.1-0.2-5-0.2h-5.8c-1.9,0-3.5,0-4.8,0.1c-1.3,0.1-2,0.2-2,0.3c0.1,2.7,0.3,5.5,0.4,8.1
		c0.1,2.7,0.3,5.3,0.6,8c5.4-0.1,10.8-0.2,16.3-0.2c5.5,0,10.9-0.1,16.1-0.4c-0.2,4.4-0.3,8.6-0.2,12.7c0.1,4.1,0.1,8.4-0.2,12.7
		c-9.7-0.4-19.2-0.5-28.5-0.5c-9.3,0.1-18.7,0.1-28.2,0.1c-0.2-14.7-0.4-29.5-0.6-44.2c-0.1-14.8-0.3-29.6-0.6-44.4
		c9.9-0.7,19.7-1.4,29.7-2.1C377.8,202.7,387.6,201.8,397.4,200.7"/>
	<path fill="#FFFFFF" d="M423.3,270.7c6-0.4,12.1-1,18.3-1.7c6.2-0.8,12.5-1.6,18.8-2.5c-0.4,5.6-0.7,11.2-1,16.9
		c-0.3,5.7-0.6,11.3-1,16.9c-9.5-0.4-18.9-1-28.2-1.6c-9.3-0.7-18.8-1.3-28.2-2c0.2-12.8,0.2-25.8,0-38.8c-0.3-13-0.3-26.2-0.2-39.4
		c0-2.1,0-4.2,0-6.4c0-2.1,0.1-4,0.4-5.8c3.9,0.2,7.7,0.2,11.6,0.1c3.9-0.1,7.8-0.2,11.8-0.3c-0.9,10.6-1.5,21.2-1.7,32
		C423.7,248.8,423.5,259.7,423.3,270.7"/>
	<path fill="#FFFFFF" d="M511.4,227.6c2.8,1.5,5.3,3.4,7.6,5.7c2.3,2.3,4.1,4.8,5.5,7.5c1.4,2.7,2.2,5.6,2.4,8.6
		c0.2,3.1-0.3,6.1-1.5,9c-1.5,3.2-4.1,6.1-7.6,8.8c-3.6,2.7-7.1,4.6-10.7,5.7c-1,0.3-2.5,0.6-4.4,0.9c-1.9,0.3-3.9,0.6-5.8,0.9
		c-2,0.3-3.7,0.6-5.1,0.9c-1.4,0.3-2.2,0.6-2.2,0.8c-0.9,6.1-1.5,12.3-1.7,18.7c-0.2,6.4-0.5,12.7-0.8,19.1
		c-1.6-0.1-3.5-0.2-5.5-0.4c-2.1-0.2-4.1-0.5-6.2-0.8c-2.1-0.3-4.2-0.6-6.1-0.8c-2-0.3-3.8-0.5-5.4-0.7c0.4-14.6,1.1-28.9,2.1-43.1
		c1-14.1,1.8-28.4,2.4-42.7c0-0.4,0.2-0.7,0.6-0.9c2.7-1.9,5.9-3,9.7-3.5c3.8-0.5,7.7-0.5,11.7,0c4,0.4,7.9,1.3,11.7,2.5
		C505.7,225,508.9,226.3,511.4,227.6"/>
	<path fill="#FFFFFF" d="M423.4,313.4c0.1,3-0.1,6.1-0.5,9.3c-0.4,3.2-0.7,6.4-0.9,9.7c-4.3-0.2-8.5-0.4-12.6-0.5
		c-4-0.1-8.3-0.3-12.7-0.4c0.1,1,0.2,2.2,0.4,3.6c0.1,1.4,0.2,2.8,0.3,4.1c1.9,0,3.9,0.1,5.9,0.2c2,0.1,4,0.3,6,0.5
		c-0.2,1.9-0.4,3.9-0.5,5.8c-0.1,1.9-0.3,3.9-0.4,5.8c-1-0.2-2.3-0.3-3.7-0.4c-1.5-0.1-2.9-0.2-4.3-0.3c-1.4-0.1-2.6-0.2-3.5-0.2
		c-1,0-1.5,0-1.5,0.1c0,2-0.1,4.1-0.1,6c0,2,0,4,0,5.9c4,0.2,8,0.4,12.1,0.7c4.1,0.3,8,0.5,11.9,0.5c-0.4,3.2-0.7,6.4-0.8,9.4
		c-0.1,3.1-0.4,6.2-0.8,9.4c-7.2-0.8-14.2-1.4-21.1-1.8c-6.9-0.4-13.8-0.9-20.8-1.4c0.6-10.9,1.2-21.8,1.8-32.8
		c0.7-10.9,1.3-21.9,1.8-32.9c7.3-0.1,14.7-0.1,22.1,0C408.9,313.9,416.2,313.8,423.4,313.4"/>
	<path fill="#FFFFFF" d="M458.1,315.5c2.6,12.1,5.3,24.1,8.2,35.8c2.9,11.7,5.8,23.5,8.9,35.2c-4.1-0.4-8.3-0.8-12.6-1.1
		c-4.2-0.4-8.1-0.8-11.7-1.4c-0.1-1.3-0.1-2.7,0-4.2s0.2-3.1,0.3-4.6c0.1-1.6,0.2-3.1,0.2-4.6c0.1-1.5,0-2.8-0.1-4
		c-1.5-0.5-3-0.8-4.6-0.9c-1.6-0.2-3.2-0.3-4.8-0.5c-1,2.7-1.9,5.6-2.6,8.7c-0.7,3.1-1.5,6.2-2.2,9.2c-3.1-0.1-6.5-0.3-10.1-0.6
		c-3.6-0.2-7.1-0.7-10.3-1.3c4.2-11.1,8.2-22.3,12-33.6c3.8-11.3,8.1-22.2,12.8-32.9c2.8,0.1,5.5,0.3,8.1,0.5
		C452.3,315.4,455.1,315.5,458.1,315.5"/>
	<path fill="#FFFFFF" d="M471.2,319.4c5.2,0.2,10.2,0.4,15.2,0.7c4.9,0.3,9.9,0.5,14.8,0.7c4.9,0.2,10,0.3,15.1,0.4
		c5.1,0.1,10.4,0,15.9-0.3c-0.5,4.5-1,9-1.6,13.3c-0.6,4.4-1.5,8.5-2.8,12.3c-3-0.2-5.9-0.4-8.8-0.6c-2.9-0.2-5.8-0.4-8.7-0.5
		c-0.5,2.8-0.9,6-1.4,9.4c-0.5,3.4-0.9,7-1.3,10.7c-0.4,3.7-0.8,7.3-1.1,10.9c-0.3,3.6-0.6,7-0.7,10.1c-4.3-0.1-8.4-0.2-12.4-0.2
		c-4,0-7.9-0.3-11.7-0.9c0.2-3.4,0.6-7,1.1-10.8c0.5-3.8,1-7.7,1.6-11.5c0.6-3.9,1.2-7.7,1.7-11.4c0.5-3.8,0.9-7.4,1.2-10.8
		c-3-0.4-6-0.6-8.8-0.7c-2.8-0.1-5.8-0.1-9-0.3c0.2-3.5,0.4-7,0.5-10.5C470.1,325.9,470.5,322.6,471.2,319.4"/>
	<path fill="#FFFFFF" d="M35.2,387c5.2-1.1,10.4-2.5,15.7-3.9c5.3-1.5,10.7-3,16.1-4.7c0.4,4.9,0.9,9.9,1.4,14.9
		c0.5,5,1,9.9,1.4,14.9c-8.3,0.9-16.6,1.7-24.8,2.3c-8.2,0.7-16.5,1.3-24.9,2c-1.5-11.2-3.3-22.5-5.2-33.9
		c-2-11.3-3.8-22.8-5.5-34.3c-0.2-1.9-0.5-3.7-0.8-5.6c-0.3-1.8-0.5-3.5-0.4-5.1c3.4-0.3,6.8-0.8,10.1-1.4c3.4-0.6,6.8-1.2,10.3-1.8
		c0.6,9.4,1.5,18.7,2.8,28.1C32.6,367.9,33.9,377.4,35.2,387"/>
	<path fill="#FFFFFF" d="M112.9,328.5c4.1,14.2,8.3,28.2,12.6,41.9c4.3,13.7,8.8,27.4,13.5,41c-5-0.1-10-0.2-15-0.3
		c-5.1-0.1-9.7-0.3-14-0.7c-0.2-1.5-0.3-3.2-0.3-5v-5.5c0-1.9,0-3.7-0.1-5.4c-0.1-1.8-0.2-3.4-0.4-4.8c-1.8-0.4-3.6-0.7-5.5-0.7
		c-1.9-0.1-3.8-0.1-5.7-0.2c-1,3.3-1.8,6.8-2.4,10.6c-0.6,3.7-1.2,7.4-1.9,11.1c-3.7,0.1-7.8,0.2-12.1,0.2c-4.3,0-8.4-0.2-12.4-0.7
		c4.1-13.5,7.9-27.2,11.6-40.9c3.6-13.7,7.8-27,12.5-40c3.3-0.1,6.5-0.1,9.7-0.1C106.1,328.8,109.4,328.7,112.9,328.5"/>
	<path fill="#FFFFFF" d="M169.8,335.3h0.2c-1.2,4.1-2.2,8.1-2.9,12.1c-0.7,4-1.6,7.9-2.6,11.7c-0.8,3.2-1.4,6.5-1.9,10
		c-0.5,3.5-0.2,6.8,0.7,10c1.2,3.9,3.3,6.1,6.2,6.7c2.9,0.6,5.8-0.6,8.7-3.7c2.2-2.5,3.7-5.4,4.4-8.6c0.7-3.2,1.2-6.4,1.4-9.6
		c0-0.3,0-1,0.1-2.1c0.1-1.1,0.1-2.4,0.2-4c0.1-1.6,0.2-3.3,0.3-5.2c0.1-1.9,0.1-3.8,0.2-5.8c0.2-4.5,0.4-9.6,0.7-15.4
		c3.9-0.2,7.5-0.4,11.1-0.7c2.9-0.2,5.8-0.4,8.7-0.4c2.9-0.1,5-0.1,6.2-0.2c-0.1,2.2-0.2,4.7-0.4,7.4c-0.2,2.8-0.4,5.5-0.6,8.3
		c-0.2,2.8-0.5,5.6-0.7,8.3c-0.3,2.7-0.6,5-0.9,7c-0.8,4.4-1.8,9-3.1,13.7c-1.3,4.7-3.1,9.3-5.2,13.6c-2.1,4.3-4.8,8.3-8,12
		c-3.2,3.6-7.1,6.5-11.7,8.6c-1.3,0.7-3.1,1.2-5.3,1.5c-2.2,0.3-4.5,0.6-7,0.7c-2.5,0.1-4.8,0.1-7.1,0.1c-2.3-0.1-4.1-0.2-5.5-0.6
		c-2.8-0.6-5.3-1.6-7.5-3.2c-2.3-1.6-4.2-3.5-5.7-5.7c-1.7-2.4-3-5.1-4-7.9c-1-2.9-1.7-5.8-2.2-8.7c-0.5-3-0.8-6-0.8-9
		c-0.1-3-0.1-6-0.1-8.8c0.1-3,0.2-6.1,0.2-9.2c0-3.2,0.1-6.4,0.3-9.6c0.2-3.2,0.7-6.3,1.3-9.4c0.7-3.1,1.7-5.9,3-8.6
		c0.1-0.2,0.9-0.3,2.2-0.2c1.4,0.1,3.1,0.2,5,0.6c2,0.3,4.2,0.7,6.5,1.2c2.4,0.5,4.6,1,6.9,1.4c2.2,0.4,4.1,0.9,5.7,1.2
		C168.2,334.9,169.2,335.1,169.8,335.3"/>
	<path fill="#FFFFFF" d="M241.8,354.7c3.3-0.1,6.4-0.2,9.2-0.2c2.8-0.1,5.6-0.1,8.3,0c2.7,0.1,5.6,0.1,8.6,0.1c3,0,6.5-0.1,10.3-0.3
		c-0.2,2.4-0.4,5.3-0.4,8.5c-0.1,3.2-0.3,6.6-0.7,10.2c-0.4,3.5-1.2,7-2.2,10.4c-1,3.4-2.7,6.5-5,9.2c-2.3,2.8-5.3,5-9,6.6
		c-3.7,1.6-8.5,2.5-14.2,2.5c-6.2,0-11.6-0.9-16.2-2.7c-4.6-1.8-8.5-4.2-11.6-7.3c-3.1-3-5.4-6.6-7-10.7c-1.6-4.1-2.5-8.5-2.7-13.1
		c-0.3-7.4,0.2-14.1,1.7-20.2c1.4-6.1,3.7-11.3,6.8-15.6c3.1-4.3,7-7.6,11.6-10c4.7-2.4,10-3.5,16.1-3.5c6.1-0.1,11.9,0.7,17.4,2.5
		c5.6,1.8,10.2,5.1,14,9.9c-1.3,1.2-2.8,2.7-4.4,4.4c-1.6,1.7-3.1,3.3-4.5,4.9c-1.7,1.9-3.4,3.8-5.1,5.8c-1.9-1.5-3.8-2.9-5.8-4
		c-1.8-0.9-3.7-1.7-5.9-2.3c-2.2-0.7-4.5-0.8-6.8-0.3c-2,0.4-3.9,1.3-5.7,2.6c-1.8,1.3-3.4,2.8-4.8,4.6c-1.4,1.8-2.5,3.8-3.4,5.9
		c-0.9,2.1-1.4,4.1-1.6,6.1c-0.3,3-0.1,5.9,0.7,8.8c0.8,2.9,2.2,5.6,4,8.3c0.8,1.2,1.8,2.4,3.2,3.5c1.4,1.1,2.9,2,4.5,2.6
		c1.6,0.6,3.3,0.8,5,0.7c1.8-0.2,3.4-0.9,5-2.2c0.6-0.5,1.1-1.3,1.6-2.4c0.5-1,0.9-2.2,1.2-3.4c0.4-1.3,0.8-2.8,1.2-4.5
		c-1.9,0.2-3.6,0.4-5.1,0.7c-3.1,0.3-5.6,0.6-7.4,0.8c-0.2-2.9-0.5-5.7-0.7-8.5C241.4,359.8,241.5,357.1,241.8,354.7"/>
	<path fill="#FFFFFF" d="M308.9,341.4c3.4-0.2,6.6-0.4,9.6-0.4c3-0.1,6.1-0.2,9.4-0.4c0.1-5.4,0.2-10.8,0.3-16.3
		c0.1-5.5,0.2-11.1,0.3-16.7c4.3,0,8.5,0,12.7-0.1c4.2-0.1,8.4,0,12.7,0.1c-1.1,14.1-1.6,27.7-1.6,40.7c0.1,13,0,26.3-0.2,39.9
		c-7.9,0.1-15.7,0.1-23.4,0c-0.2-4.4-0.4-8.8-0.7-13.3c-0.2-4.5-0.4-8.9-0.7-13.3c-7.4-0.1-14.4,0.2-21,1c0,4.4,0.1,8.7,0.3,12.9
		c0.2,4.2,0.2,8.6,0,13.2c-4,0.1-8.4,0.3-13.3,0.5c-4.9,0.2-9.4,0.4-13.6,0.5c0.4-13.4,1-26.9,1.7-40.4c0.7-13.5,1.5-27.7,2.2-42.5
		c4.1,0,8.2,0.1,12.3,0.2c4.1,0.1,8.1,0.2,11.8,0.3c0.2,3.5,0.4,7.2,0.6,11c0.2,3.8,0.4,7.6,0.6,11.5c0.1,1.3,0.2,2.8,0.2,4.5
		c0.1,1.7,0.1,2.8,0.2,3.2c-0.2,0.6-0.3,1.1-0.3,1.7C309.2,339.8,309.1,340.6,308.9,341.4"/>
	<path fill="#FFFFFF" d="M326.1,393.1c5.7,20,11.7,39.7,17.8,59c6.1,19.3,12.5,38.6,19,57.8c-7-0.2-14-0.3-21.2-0.5
		c-7.1-0.2-13.7-0.5-19.8-0.9c-0.3-2.2-0.5-4.5-0.5-7.1v-7.8c0-2.6,0-5.2-0.1-7.7c-0.1-2.5-0.3-4.7-0.6-6.7c-2.5-0.6-5.1-1-7.8-1.1
		c-2.7-0.1-5.4-0.2-8-0.3c-1.4,4.7-2.5,9.6-3.4,14.9c-0.9,5.3-1.7,10.5-2.7,15.6c-5.3,0.2-10.9,0.2-17,0.2c-6.1,0-11.9-0.3-17.5-0.9
		c5.7-19.1,11.2-38.3,16.3-57.6c5.1-19.3,11-38.1,17.7-56.4c4.7-0.2,9.2-0.2,13.6-0.1C316.5,393.5,321.2,393.4,326.1,393.1"/>
	<path fill="#FFFFFF" d="M417.2,394.5c-0.2,6.8-0.3,14-0.5,21.5c-0.2,7.5-0.2,14.8-0.2,21.8c-1.6-0.6-3-1.1-4.3-1.5
		c-1.3-0.4-2.7-0.7-4.1-1c-1.4-0.3-2.9-0.6-4.7-0.8c-1.7-0.2-3.7-0.5-6.1-0.8c-1.1-0.2-2.3-0.2-3.6-0.1c-1.3,0.1-2.5,0.3-3.6,0.6
		c-1.1,0.3-2.1,0.9-2.9,1.6c-0.9,0.8-1.4,1.8-1.5,3c-0.2,1.6,0.1,3,0.8,4.4c0.7,1.4,1.6,2.8,2.8,4.1c1.2,1.3,2.4,2.6,3.8,3.7
		c1.4,1.2,2.6,2.2,3.5,3.1c3.4,3.4,6.8,7,10.1,10.7c3.3,3.7,5.7,7.8,7.1,12.3c0.8,2.5,0.9,4.7,0.5,6.7c-0.5,2-1.4,3.8-2.8,5.5
		c-1.4,1.6-3.1,3.1-5.2,4.3c-2.1,1.2-4.3,2.3-6.6,3c-0.5,0.2-1.7,0.6-3.7,1.3c-2,0.7-4.5,1.5-7.3,2.4c-2.9,0.9-5.9,1.9-9,2.9
		c-3.1,1-6,1.9-8.7,2.8c-2.7,0.9-5.8,1.9-9.2,3.1c-1.1-6.4-2.1-12.6-3-18.9c-0.9-6.2-1.9-12.5-2.8-18.9c2-0.2,3.9,0.4,5.6,1.7
		c1.7,1.3,3.5,2,5.3,2c2.6,0,4.4-1.1,5.4-3.3c0.9-2.2,1.2-4.2,0.7-6.1c-0.6-2.2-1.7-4.2-3.3-6.2c-1.6-1.9-3.2-3.7-4.9-5.2
		c-2.3-2.3-4.8-4.7-7.5-7.2c-2.6-2.5-4.8-5.1-6.6-7.9c-1.8-2.8-2.9-5.7-3.3-8.8c-0.4-3.1,0.4-6.4,2.4-9.8
		c3.6-5.9,8.4-10.8,14.5-14.8c6.1-4,12.7-7,19.7-9.2c5.9-1.7,11.2-2.7,16.1-3C405.1,393.4,410.7,393.7,417.2,394.5"/>
	<path fill="#FFFFFF" d="M476.3,393.8c2.5,1.2,5.3,2.4,8.5,3.6c3.2,1.2,6.4,2.3,9.8,3.5c3.3,1.2,6.6,2.4,9.8,3.6
		c3.2,1.2,6,2.4,8.5,3.5c-0.9,2.2-2.2,4.2-3.8,5.9c-1.6,1.8-3.1,3.6-4.5,5.5c-4.3,5.7-8.3,12.2-12,19.4c-3.6,7.2-7.5,14.1-11.5,20.6
		c7.3-0.9,14.1-2.2,20.5-3.7c6.4-1.5,12.8-3.2,19.3-4.9c-1.1,7.9-2.1,15.8-3.1,23.7c-1,7.9-1.9,16-2.7,24.2
		c-5-0.9-10.6-2.1-16.9-3.6c-6.3-1.5-12.1-2.9-17.5-4.4c-5.4-1.5-9.8-2.7-13.3-3.6c-3.5-0.9-4.9-1.2-4.1-0.9c0,1.6,0.1,3.4,0.2,5.6
		c0.2,2.2,0.3,4.4,0.5,6.6c0.2,2.2,0.3,4.4,0.4,6.5c0.1,2.1,0,3.8-0.1,5c-5.9,0-11.7,0.1-17.5,0.2c-5.7,0.2-12,0.2-18.6,0
		c-0.3-8.5-0.6-17.7-0.8-27.5c-0.2-9.8-0.5-19.7-0.7-29.8c-0.2-10.1-0.4-20-0.6-29.8c-0.2-9.8-0.4-18.9-0.7-27.5
		c4,0,8.4-0.1,13.1-0.2c4.7-0.2,8.9-0.4,12.5-0.7c0.9,7,1.7,13.9,2.3,20.7c0.6,6.8,1.3,14,2.1,21.6c3.6-7.3,7.1-14.5,10.5-21.8
		C469.3,408.1,472.8,400.9,476.3,393.8"/>
	<path fill="#FFFFFF" d="M42.1,308.5c0.5-0.4,0.9-0.8,1.3-1.2c0.4-0.4,0.8-0.9,1.2-1.3c1.7-2.1,2.9-4.6,3.6-7.5
		c0.7-2.9,1.4-5.5,2.2-8.1c3.2,0.2,6.1,0.5,8.9,0.8c2.3,0.2,4.6,0.5,6.7,0.8c2.1,0.3,3.5,0.7,4.3,1c0.2,0.1,0.1,1-0.2,2.8
		c-0.4,1.8-1,4-2,6.5c-1,2.6-2.4,5.3-4.3,8.3c-1.8,3-4,5.7-6.6,8.2c-2.6,2.5-5.7,4.5-9.4,6.1c-3.6,1.5-7.7,2.2-12.3,2
		c-3.4-0.1-6.7-1.3-10-3.4c-3.3-2.1-6.2-4.9-8.8-8.3c-2.6-3.4-4.7-7.3-6.3-11.7c-1.6-4.4-2.4-8.9-2.4-13.6c0-4.7,0.9-9.4,2.8-14.1
		c1.9-4.7,5-9.1,9.2-13.2c2.3-2.1,4.9-3.6,7.8-4.5c2.9-0.9,5.9-1.3,9-1.3c3.1,0,6.1,0.5,9.1,1.2c2.9,0.8,5.6,1.8,7.9,2.9
		c1.7,0.9,3.3,1.8,4.7,2.9c1.5,1.1,3,2.3,4.5,3.6c-0.7,1-1.8,2.4-3.4,4c-1.6,1.7-3.3,3.3-5,5c-2,1.9-4.1,4-6.4,6.1
		c-1.8-1.2-3.5-2.2-5.2-2.9c-1.5-0.6-3-0.9-4.6-1c-1.5-0.1-3,0.5-4.3,1.8c-1.3,1.3-2.4,3-3.1,5.2c-0.7,2.2-1.2,4.5-1.4,6.9
		c-0.2,2.4-0.1,4.8,0.2,7.1c0.3,2.3,0.9,4.2,1.7,5.7c1.3,2.4,2.9,3.7,4.9,4.1C38.3,310.1,40.2,309.7,42.1,308.5"/>
	<path fill="#FFFFFF" d="M93.1,282.3c2.8-0.2,5.4-0.3,7.8-0.4c2.4-0.1,5-0.2,7.7-0.4c0-4.4,0.1-8.8,0.1-13.3c0-4.5,0.1-9,0.1-13.6
		c3.5,0,7-0.1,10.4-0.2c3.4-0.1,6.9-0.1,10.4,0c-0.8,11.5-1.1,22.6-1,33.2c0.1,10.6,0.2,21.5,0.1,32.5c-6.5,0.2-12.8,0.2-19.1,0.2
		c-0.2-3.6-0.4-7.2-0.6-10.8c-0.2-3.6-0.4-7.2-0.6-10.8c-6,0-11.7,0.3-17.1,1c0,3.6,0.2,7.1,0.4,10.5c0.2,3.4,0.2,7,0.1,10.8
		c-3.2,0.1-6.8,0.3-10.8,0.5c-4,0.2-7.7,0.4-11.1,0.5c0.3-11,0.6-21.9,1.1-33c0.5-11,1-22.6,1.5-34.7c3.3,0,6.7,0,10,0
		c3.4,0.1,6.6,0.1,9.6,0.2c0.2,2.9,0.4,5.9,0.6,9c0.2,3.1,0.4,6.2,0.6,9.4c0.1,1.1,0.2,2.3,0.2,3.7c0.1,1.4,0.1,2.3,0.2,2.6
		c-0.2,0.5-0.3,0.9-0.3,1.4C93.4,280.9,93.3,281.5,93.1,282.3"/>
	<path fill="#FFFFFF" d="M168.3,247.4c2.8,11.7,5.7,23.3,8.8,34.6c3,11.3,6.2,22.6,9.5,33.9c-4-0.3-8.1-0.5-12.2-0.8
		c-4.1-0.3-7.9-0.6-11.4-1.1c-0.1-1.3-0.2-2.6-0.1-4.1c0.1-1.5,0.1-3,0.2-4.5c0.1-1.5,0.1-3,0.1-4.4c0-1.4,0-2.7-0.2-3.9
		c-1.4-0.4-2.9-0.7-4.5-0.8c-1.6-0.1-3.1-0.3-4.6-0.4c-0.9,2.7-1.7,5.5-2.3,8.5c-0.6,3-1.3,6-2,9c-3.1,0-6.3-0.1-9.8-0.3
		c-3.5-0.2-6.9-0.5-10.1-1c3.8-10.9,7.5-21.9,10.9-32.9c3.5-11,7.4-21.8,11.7-32.2c2.7,0,5.3,0.1,7.9,0.3
		C162.7,247.4,165.4,247.4,168.3,247.4"/>
	<path fill="#FFFFFF" d="M179.3,243.7c5.5,0.2,10.8,0.4,16,0.7c5.2,0.3,10.4,0.5,15.7,0.7c5.2,0.2,10.5,0.3,15.9,0.4
		c5.4,0.1,11-0.1,16.8-0.4c-0.5,4.8-1,9.4-1.6,14.1c-0.6,4.6-1.5,8.9-2.9,13c-3.1-0.2-6.2-0.4-9.3-0.6c-3.1-0.2-6.1-0.3-9.1-0.4
		c-0.5,3-1,6.3-1.4,10c-0.5,3.6-0.9,7.4-1.3,11.3c-0.4,3.9-0.8,7.7-1.1,11.5c-0.3,3.8-0.6,7.4-0.7,10.7c-4.5-0.1-8.9-0.1-13.1-0.2
		c-4.3,0-8.4-0.3-12.3-0.9c0.2-3.6,0.6-7.4,1.1-11.5c0.5-4,1.1-8.1,1.7-12.1c0.6-4.1,1.2-8.1,1.7-12.1c0.5-4,0.9-7.8,1.2-11.4
		c-3.2-0.4-6.3-0.6-9.3-0.7c-3,0-6.1-0.1-9.5-0.2c0.2-3.7,0.4-7.4,0.5-11.1C178.2,250.6,178.6,247.1,179.3,243.7"/>
	<path fill="#FFFFFF" d="M4.3,7.8c0.6,0.1,1.8,0.1,3.5,0.1c1.8,0,3.8-0.1,6.1-0.1c2.3,0,4.8,0.1,7.3,0.2c2.6,0.1,5,0.4,7.2,0.7
		c4.6,0.8,8.7,2.5,12.3,5.1c3.6,2.6,6.4,5.9,8.6,9.7c2.2,3.9,3.6,8.2,4.3,13.1c0.7,4.9,0.5,10-0.5,15.2c-0.6,2.8-1.6,5.3-3,7.5
		c-1.4,2.2-3.1,4.1-5.2,5.7c-2,1.6-4.3,2.9-6.8,3.9c-2.5,1-5.1,1.8-7.7,2.3c-2.3,0.4-4.7,0.9-7,1.3c-2.4,0.4-4.7,0.6-7.1,0.5
		c-0.4,0-1.4-0.1-2.8-0.2c-1.5-0.1-3-0.3-4.5-0.5c-1.5-0.2-2.9-0.4-4.2-0.6C3.6,71.5,3,71.3,3,71.1c0.2-5.8,0.3-11.5,0.4-17.2
		c0.1-5.7,0.2-11.4,0.3-17.2V20.3c0-1.2,0-2.3-0.1-3.3c-0.1-1-0.2-2-0.2-3c0-1,0-2,0.1-3C3.6,10,3.9,8.9,4.3,7.8"/>
	<path fill="#FFFFFF" d="M82.8,8c3.2,11.1,6.5,22,9.9,32.6c3.4,10.7,6.9,21.4,10.5,32c-3.9-0.1-7.8-0.2-11.7-0.3
		c-3.9-0.1-7.6-0.3-10.9-0.5c-0.2-1.2-0.3-2.5-0.3-3.9v-4.3c0-1.5,0-2.9-0.1-4.2c0-1.4-0.1-2.6-0.3-3.7c-1.4-0.3-2.8-0.5-4.3-0.6
		c-1.5,0-3-0.1-4.4-0.2c-0.8,2.6-1.4,5.3-1.9,8.2c-0.5,2.9-1,5.8-1.5,8.6c-2.9,0.1-6.1,0.1-9.4,0.1c-3.3,0-6.6-0.2-9.7-0.5
		c3.2-10.6,6.2-21.2,9-31.9c2.8-10.7,6.1-21.1,9.8-31.2c2.6-0.1,5.1-0.1,7.5-0.1C77.5,8.3,80.1,8.2,82.8,8"/>
	<path fill="#FFFFFF" d="M165.2,17.1c-1.5,4.7-2.9,9.5-4.3,14.4c-1.4,4.8-2.7,9.8-3.9,14.7c-1.2,5-2.4,9.9-3.7,14.9
		c-1.2,4.9-2.7,9.8-4.3,14.6c-2.1-1.1-4.5-2.6-7.2-4.4c-2.8-1.8-5.4-3.6-7.9-5.3c-2.5-1.7-4.7-3.2-6.5-4.4c-1.8-1.2-2.8-1.8-3-1.8
		c0.1,2,0.2,4.1,0.4,6.4c0.2,2.3,0.3,4.4,0.5,6.2c-3.3-0.3-6.7-0.7-10-1c-3.3-0.3-6.5-0.7-9.7-1.1c-0.4-10-1-19.9-1.6-29.7
		c-0.6-9.9-1.5-19.4-2.5-28.5c0.2-0.2,0.5,0,1,0.6c0.5,0.6,0.9,1.1,1.2,1.4c5.8,5.8,11.8,11.5,18,17.3c6.1,5.8,12.1,11.6,17.8,17.5
		c0.2-2.5,0.3-5.4,0.5-8.7c0.2-3.3,0.3-6.8,0.5-10.4c0.2-3.6,0.3-7.4,0.4-11.1c0.1-3.8,0.1-7.4,0.1-10.8c4.2,0.2,8.6,0.4,13.1,0.6
		c4.6,0.3,8.9,0.6,13,0.9c-0.1,0.7-0.2,1.3-0.5,1.7c-0.2,0.5-0.3,1.1-0.3,1.7L165.2,17.1z"/>
	<path fill="#FFFFFF" d="M192.6,54.8c0.4-0.3,0.8-0.7,1.2-1.1c0.4-0.4,0.8-0.8,1.1-1.2c1.5-2,2.6-4.3,3.2-6.9
		c0.6-2.6,1.2-5.1,1.9-7.4c2.9,0.2,5.6,0.4,8.1,0.6c2.1,0.2,4.2,0.4,6.1,0.6c1.9,0.3,3.2,0.6,3.9,0.9c0.2,0.1,0.1,0.9-0.2,2.6
		c-0.3,1.6-0.9,3.6-1.8,6c-0.9,2.4-2.2,4.9-3.8,7.7c-1.6,2.7-3.6,5.3-6,7.6c-2.4,2.3-5.2,4.2-8.5,5.7c-3.3,1.5-7.1,2.1-11.3,1.9
		c-3.1-0.1-6.2-1.1-9.2-3c-3-1.9-5.8-4.4-8.2-7.5c-2.4-3.1-4.4-6.6-5.9-10.6c-1.5-4-2.3-8.1-2.4-12.4c-0.1-4.3,0.7-8.6,2.4-12.9
		c1.7-4.3,4.4-8.4,8.3-12.2c2.1-2,4.4-3.4,7.1-4.3c2.7-0.9,5.4-1.3,8.2-1.3c2.8,0,5.6,0.3,8.3,1c2.7,0.7,5.1,1.5,7.3,2.6
		c1.5,0.8,3,1.7,4.4,2.6c1.4,1,2.7,2.1,4.1,3.3c-0.6,0.9-1.6,2.2-3.1,3.7c-1.5,1.5-3,3.1-4.5,4.6c-1.8,1.8-3.7,3.7-5.8,5.7
		c-1.6-1.1-3.2-2-4.8-2.6c-1.4-0.5-2.8-0.8-4.2-0.9c-1.4-0.1-2.7,0.5-3.9,1.7c-1.2,1.2-2.1,2.8-2.8,4.8c-0.6,2-1,4.1-1.2,6.4
		c-0.1,2.2,0,4.4,0.3,6.5c0.3,2.1,0.8,3.8,1.6,5.2c1.2,2.1,2.7,3.4,4.5,3.7C189.1,56.3,190.8,55.9,192.6,54.8"/>
	<path fill="#FFFFFF" d="M261.5,21.5c-0.2,2.8-0.7,5.6-1.4,8.5c-0.7,2.9-1.3,5.9-1.8,8.8c-4-0.6-7.8-1.2-11.5-1.7
		c-3.7-0.5-7.6-1-11.7-1.6c0,1,0,2.1,0,3.4c0,1.3,0,2.6-0.1,3.8c1.8,0.2,3.6,0.5,5.4,0.8c1.8,0.3,3.7,0.6,5.5,1
		c-0.4,1.8-0.7,3.5-1.1,5.3c-0.3,1.8-0.6,3.5-0.9,5.3c-0.9-0.2-2.1-0.5-3.4-0.7c-1.4-0.2-2.7-0.5-3.9-0.7c-1.3-0.2-2.4-0.4-3.2-0.5
		c-0.9-0.1-1.4-0.1-1.4,0c-0.2,1.9-0.5,3.7-0.7,5.6c-0.2,1.8-0.4,3.7-0.6,5.5c3.6,0.6,7.3,1.1,11.1,1.8c3.7,0.6,7.4,1.2,11,1.7
		c-0.7,2.9-1.2,5.8-1.6,8.6c-0.4,2.8-0.9,5.7-1.6,8.6c-6.6-1.4-13-2.6-19.3-3.7c-6.3-1.1-12.7-2.1-19.1-3.3c1.6-10,3.2-20,4.9-30.1
		c1.7-10,3.3-20.1,4.9-30.2c6.8,0.7,13.6,1.4,20.4,2.1C248,20.6,254.8,21.2,261.5,21.5"/>
</g>
</svg>
