
<svg version="1.1"
	 x="0px" y="0px" width="189px" height="99.4px" viewBox="0 0 189 99.4" enable-background="new 0 0 189 99.4" xml:space="preserve"
	>
	<path fill="none" d="M150.8,0h-9.4c2,2,3.8,3.7,5.3,5.1C148.1,3.4,149.5,2,150.8,0z"/>
	<path fill="none" d="M62.2,91.3c3.7-3.6,7.4-7,11.2-10.6c6.1,6.2,12,12.2,17.8,18.5c0,0,0-0.2,0-0.2h13.8c-0.3,0-0.6-0.4-1-0.7
		l13.4-22.9C122.9,80.8,134,92,141.9,99h9.2c2.1-2,4.2-5.2,6.2-8c3.3-4.6,6.7-9.2,10.1-14c3.5,3.7,7.2,7.5,10.8,11.2
		c3.6,3.7,6.8,7.5,10.8,11.2V0h-0.6c0,0,0,0,0.1,0c-6.2,6.1-12.4,12-18.6,17.8c-6.3,5.8-16.2,15.4-22.5,21.3
		c-8.4-8.1-17.1-16.1-25.9-24.1c-8.5-7.6-9-8.1-16.8-15.1H89.6c0.2,0,0.3,0.3,0.5,0.5c5.8,6.3,15.4,16.2,21.3,22.5
		c-8.1,8.4-16.2,17.1-24.1,25.9c-7.9,8.9-7.7,9-16,17.7L48.6,53.2c6.8-7,21.8-22.6,28.8-29.8c-4.2-3.5-8.7-6.9-13.3-10.2
		c-4.6-3.3-9.3-6.7-14.1-10C51.1,2.1,52.2,1,53.4,0H0v99h53.8C56.6,97,59.4,94,62.2,91.3z M98.9,53.2c8.6-8.2,17-16.6,25.1-25
		c6.5,5.7,16.8,14.9,23.2,20.5c6.5,5.6,12.9,11.3,19.2,17.2c-3.4,3.8-6.8,7.7-10.3,11.5c-3.5,3.8-6.9,7.7-10.3,11.5
		c-3.5-4.7-7.1-9.3-10.6-13.8c-3.5-4.5-7-8.8-10.7-12.9c-7,7.2-22,22.7-28.8,29.8L81.7,69.8C90.2,61.2,90.3,61.4,98.9,53.2z
		 M26,71.6C17.8,63,9.5,54.7,1,46.5C6.7,40,16,29.8,21.6,23.3c5.6-6.5,11.3-12.9,17.2-19.2c3.8,3.4,7.7,6.8,11.5,10.3
		c3.8,3.5,7.7,6.9,11.5,10.3c-4.7,3.5-9.3,7.1-13.8,10.6c-4.5,3.5-8.8,7-12.9,10.7c7.2,7,22.7,22,29.8,28.8L42.6,88.8
		C34,80.3,34.2,80.2,26,71.6z"/>
	<path fill="#FFFFFF" d="M64.1,13.3c4.6,3.3,9,6.7,13.3,10.2c-7,7.2-22,22.7-28.8,29.8l22.8,13.4c8.3-8.7,8-8.9,16-17.7
		c7.9-8.9,16-17.5,24.1-25.9c-5.9-6.3-15.5-16.2-21.3-22.5C89.9,0.3,89.8,0,89.6,0H53.4c-1.1,1-2.3,2.1-3.4,3.2
		C54.8,6.6,59.5,9.9,64.1,13.3z"/>
	<path fill="#FFFFFF" d="M64.9,74.6c-7-6.8-22.6-21.8-29.8-28.8c4.1-3.6,8.4-7.2,12.9-10.7c4.5-3.5,9.1-7,13.8-10.6
		c-3.8-3.4-7.7-6.8-11.5-10.3c-3.8-3.5-7.7-6.9-11.5-10.3c-5.8,6.4-11.6,12.8-17.2,19.2C16,29.8,6.7,40,1,46.5
		C9.5,54.7,17.8,63,26,71.6c8.2,8.6,8,8.7,16.6,17.2L64.9,74.6z"/>
	<path fill="#FFFFFF" d="M73.3,80.8c-3.7,3.5-7.4,6.8-11.2,10.4C59.4,94,56.6,97,53.8,99h37.3c0,0,0,0.2,0,0.2
		C85.3,93,79.4,87,73.3,80.8z"/>
	<path fill="#FFFFFF" d="M167.4,77.1c-3.4,4.8-6.7,9.3-10.1,13.9c-2,2.8-4.1,6-6.2,8H189v0.4c-4-3.7-7.2-7.4-10.8-11.1
		C174.6,84.6,170.9,80.9,167.4,77.1z"/>
	<path fill="#FFFFFF" d="M103.9,98.3c0.4,0.3,0.7,0.7,1,0.7h36.9c-7.9-7-18.9-18.2-24.6-23.6L103.9,98.3z"/>
	<path fill="#FFFFFF" d="M124.7,62.3c3.6,4.1,7.2,8.4,10.7,12.9c3.5,4.5,7,9.1,10.6,13.8c3.4-3.8,6.8-7.7,10.3-11.5
		c3.5-3.8,6.9-7.7,10.3-11.5c-6.4-5.8-12.8-11.6-19.2-17.2c-6.4-5.6-16.7-14.9-23.2-20.5c-8.1,8.4-16.5,16.8-25.1,25
		c-8.6,8.2-8.7,8-17.2,16.6l14.2,22.3C102.7,85,117.7,69.5,124.7,62.3z"/>
	<path fill="#FFFFFF" d="M147.3,39.1c6.3-5.9,16.3-15.5,22.5-21.3C176,12,182.2,6.1,188.4,0c0,0,0,0-0.1,0h-37.5
		c-1.4,2-2.7,3.4-4.1,5.1c-1.5-1.4-3.3-3.1-5.3-5.1h-36.9c7.8,7,8.3,7.4,16.8,15.1C130.2,23,138.8,31,147.3,39.1z"/>
</svg>
