<?xml version="1.0" standalone="no"?>
<!DOCTYPE svg PUBLIC "-//W3C//DTD SVG 20010904//EN"
 "http://www.w3.org/TR/2001/REC-SVG-20010904/DTD/svg10.dtd">
<svg version="1.0" xmlns="http://www.w3.org/2000/svg"
 width="500.000000pt" height="500.000000pt" viewBox="0 0 500.000000 500.000000"
 preserveAspectRatio="xMidYMid meet">
<metadata>
Created by potrace 1.11, written by Peter Selinger 2001-2013
</metadata>
<g transform="translate(0.000000,500.000000) scale(0.100000,-0.100000)"
fill="#000000" stroke="none">
<path d="M1169 4868 c-1 -35 -2 -88 -4 -118 -2 -49 -7 -205 -20 -620 -3 -74
-7 -205 -11 -290 -13 -331 -16 -437 -15 -459 1 -13 36 -12 116 3 25 5 88 14
140 22 22 3 51 7 65 9 14 2 57 9 95 15 39 6 81 13 95 15 14 2 45 7 70 10 25 3
70 9 100 15 30 5 75 11 100 14 25 4 54 8 65 10 27 5 90 14 145 21 25 4 56 8
70 10 14 2 52 6 85 10 65 6 135 14 175 20 14 2 61 7 105 11 44 3 87 8 96 9 8
2 53 6 98 10 l82 7 -6 -69 c-4 -37 -8 -82 -10 -99 -2 -17 -7 -66 -10 -110 -3
-43 -8 -86 -10 -94 -2 -8 -7 -44 -10 -80 -4 -36 -8 -72 -10 -80 -2 -9 -6 -43
-10 -75 -4 -33 -13 -100 -21 -150 -7 -49 -16 -110 -19 -135 -3 -25 -7 -56 -10
-70 -2 -14 -7 -50 -11 -80 -3 -30 -7 -57 -9 -60 -1 -3 -6 -30 -9 -61 -4 -31
-8 -65 -10 -75 -4 -19 -14 -84 -21 -134 -14 -92 -46 -298 -49 -313 -4 -16 4
-17 92 -12 150 7 338 14 557 21 243 6 360 10 575 20 91 4 194 8 230 9 36 1 75
3 86 4 21 1 21 4 18 138 -8 376 -26 864 -39 1038 -7 97 -18 319 -30 615 -3 91
-11 263 -20 475 -2 55 -7 161 -10 235 -10 245 -16 354 -18 356 -1 1 -76 5
-167 8 -91 4 -201 9 -245 11 -85 4 -277 12 -485 21 -69 2 -163 6 -210 8 -47 3
-155 7 -240 11 -85 4 -184 8 -220 10 -36 2 -119 6 -185 10 -66 3 -156 7 -200
10 -44 2 -145 6 -225 10 -80 3 -185 8 -235 10 -49 3 -172 8 -272 11 l-183 5
-1 -63z"/>
<path d="M2380 3106 c-7 -6 -279 -18 -745 -30 -312 -9 -617 -19 -645 -21 -14
-1 -56 -3 -93 -4 l-68 -1 5 -167 c11 -315 16 -448 21 -553 3 -58 8 -161 10
-230 3 -69 7 -152 10 -185 6 -83 14 -228 20 -370 3 -66 7 -160 10 -210 4 -82
11 -236 20 -465 3 -85 16 -370 20 -465 2 -27 4 -87 5 -132 2 -66 6 -83 19 -87
9 -3 90 -8 181 -11 91 -4 199 -8 240 -10 41 -1 149 -6 240 -9 91 -4 197 -8
235 -11 39 -2 147 -7 240 -10 94 -4 199 -8 235 -10 36 -2 126 -7 200 -10 74
-3 169 -7 210 -10 41 -3 136 -7 210 -10 74 -4 178 -8 230 -11 52 -2 160 -6
240 -9 80 -3 200 -7 268 -10 l122 -5 1 68 c1 37 3 96 4 132 6 117 16 412 20
580 2 91 7 228 10 305 10 210 18 446 16 471 -1 8 -12 9 -38 4 -21 -5 -60 -11
-88 -15 -27 -3 -104 -15 -170 -25 -66 -10 -142 -22 -170 -25 -27 -4 -57 -8
-65 -10 -8 -2 -40 -7 -70 -10 -30 -3 -66 -8 -80 -10 -31 -6 -62 -10 -165 -25
-44 -6 -91 -13 -105 -15 -14 -2 -47 -6 -75 -10 -27 -3 -66 -8 -85 -10 -19 -3
-60 -7 -90 -10 -30 -3 -89 -10 -130 -15 -79 -10 -136 -16 -235 -25 -33 -4 -77
-8 -99 -11 l-38 -5 6 83 c4 46 9 99 11 118 2 19 7 60 10 90 3 30 7 69 9 85 2
17 7 57 10 90 7 61 14 120 21 165 2 14 7 49 10 79 4 30 8 62 10 72 4 20 14 92
20 134 3 25 23 163 40 275 2 14 7 50 11 80 4 30 8 57 9 60 0 3 4 28 9 55 4 28
16 106 27 174 19 116 21 160 9 147z"/>
</g>
</svg>
