<?xml version="1.0" encoding="utf-8"?>
<!-- Generator: Adobe Illustrator 18.0.0, SVG Export Plug-In . SVG Version: 6.00 Build 0)  -->
<!DOCTYPE svg PUBLIC "-//W3C//DTD SVG 1.1//EN" "http://www.w3.org/Graphics/SVG/1.1/DTD/svg11.dtd">
<svg version="1.1" id="Layer_1" xmlns="http://www.w3.org/2000/svg" xmlns:xlink="http://www.w3.org/1999/xlink" x="0px" y="0px"
	 viewBox="0 0 830.5 1134.8" enable-background="new 0 0 830.5 1134.8" xml:space="preserve">
<path fill="#FFFFFF" d="M282.2,877.3c75.1,86.6,155.6,172.6,236.1,257.5c51.3-48.5,103.9-94.7,154.7-142.6
	c51.3-48.5,102.7-95.9,154.7-142.6c-64-45.5-128-94.6-188.4-140.1c-60.4-45.5-121.4-93.9-177.7-142.4
	c57.3-46.1,117.6-95.2,179.1-140.7c62.1-44.9,124.7-91.5,189.8-138.2c-50.9-49-103-95.7-153.4-144.1C626.2,95.1,575.3,47.2,523.8,0
	c-81.3,85.2-160.3,171.6-238.6,257.5S79.5,479,0,566l0,0l0,0C78.7,653.9,204.7,790.7,282.2,877.3"/>
</svg>
